<svg width="512" height="512" viewBox="0 0 512 512" fill="none" xmlns="http://www.w3.org/2000/svg">
  <rect width="512" height="512" rx="100" fill="#2563eb"/>
  <path d="M256 128C185.3 128 128 185.3 128 256s57.3 128 128 128 128-57.3 128-128-57.3-128-128-128zm0 224c-52.9 0-96-43.1-96-96s43.1-96 96-96 96 43.1 96 96-43.1 96-96 96z" fill="white"/>
  <path d="M256 208c-26.5 0-48 21.5-48 48s21.5 48 48 48 48-21.5 48-48-21.5-48-48-48z" fill="white"/>
  <path d="M336 176l-16-16-64 64-64-64-16 16 64 64-64 64 16 16 64-64 64 64 16-16-64-64z" fill="white" opacity="0.5"/>
</svg>
